<?xml version="1.0" encoding="UTF-8" standalone="no"?>
<svg
   xmlns:dc="http://purl.org/dc/elements/1.1/"
   xmlns:cc="http://creativecommons.org/ns#"
   xmlns:rdf="http://www.w3.org/1999/02/22-rdf-syntax-ns#"
   xmlns:svg="http://www.w3.org/2000/svg"
   xmlns="http://www.w3.org/2000/svg"
   viewBox="0 0 55 55"
   height="55"
   width="55"
   xml:space="preserve"
   version="1.1"
   id="svg3995"><metadata
     id="metadata4001"><rdf:RDF><cc:Work
         rdf:about=""><dc:format>image/svg+xml</dc:format><dc:type
           rdf:resource="http://purl.org/dc/dcmitype/StillImage" /><dc:title></dc:title></cc:Work></rdf:RDF></metadata><defs
     id="defs3999"><clipPath
       id="clipPath4013"
       clipPathUnits="userSpaceOnUse"><path
         id="path4015"
         d="m 7.2,7.2 406.08,0 0,406.08 -406.08,0 0,-406.08 z" /></clipPath><clipPath
       id="clipPath4025"
       clipPathUnits="userSpaceOnUse"><path
         id="path4027"
         d="m 7.2,7.2 406.08,0 0,406.08 -406.08,0 0,-406.08 z" /></clipPath><clipPath
       id="clipPath4037"
       clipPathUnits="userSpaceOnUse"><path
         id="path4039"
         d="m 7.2,7.2 406.08,0 0,406.08 -406.08,0 0,-406.08 z" /></clipPath><clipPath
       id="clipPath4047"
       clipPathUnits="userSpaceOnUse"><path
         id="path4049"
         d="m 7.2,7.2 406.08,0 0,406.08 -406.08,0 0,-406.08 z" /></clipPath><clipPath
       id="clipPath4057"
       clipPathUnits="userSpaceOnUse"><path
         id="path4059"
         d="m 7.2,7.2 406.08,0 0,406.08 -406.08,0 0,-406.08 z" /></clipPath><clipPath
       id="clipPath4067"
       clipPathUnits="userSpaceOnUse"><path
         id="path4069"
         d="m 7.2,7.2 406.08,0 0,406.08 -406.08,0 0,-406.08 z" /></clipPath><clipPath
       id="clipPath4077"
       clipPathUnits="userSpaceOnUse"><path
         id="path4079"
         d="m 7.2,7.2 406.08,0 0,406.08 -406.08,0 0,-406.08 z" /></clipPath><clipPath
       id="clipPath4087"
       clipPathUnits="userSpaceOnUse"><path
         id="path4089"
         d="m 7.2,7.2 406.08,0 0,406.08 -406.08,0 0,-406.08 z" /></clipPath><clipPath
       id="clipPath4097"
       clipPathUnits="userSpaceOnUse"><path
         id="path4099"
         d="m 7.2,7.2 406.08,0 0,406.08 -406.08,0 0,-406.08 z" /></clipPath><clipPath
       id="clipPath4107"
       clipPathUnits="userSpaceOnUse"><path
         id="path4109"
         d="m 7.2,7.2 406.08,0 0,406.08 -406.08,0 0,-406.08 z" /></clipPath><clipPath
       id="clipPath4117"
       clipPathUnits="userSpaceOnUse"><path
         id="path4119"
         d="m 7.2,7.2 406.08,0 0,406.08 -406.08,0 0,-406.08 z" /></clipPath><clipPath
       id="clipPath4127"
       clipPathUnits="userSpaceOnUse"><path
         id="path4129"
         d="m 7.2,7.2 406.08,0 0,406.08 -406.08,0 0,-406.08 z" /></clipPath><clipPath
       id="clipPath4137"
       clipPathUnits="userSpaceOnUse"><path
         id="path4139"
         d="m 7.2,7.2 406.08,0 0,406.08 -406.08,0 0,-406.08 z" /></clipPath><clipPath
       id="clipPath4147"
       clipPathUnits="userSpaceOnUse"><path
         id="path4149"
         d="m 7.2,7.2 406.08,0 0,406.08 -406.08,0 0,-406.08 z" /></clipPath><clipPath
       id="clipPath4157"
       clipPathUnits="userSpaceOnUse"><path
         id="path4159"
         d="m 7.2,7.2 406.08,0 0,406.08 -406.08,0 0,-406.08 z" /></clipPath><clipPath
       id="clipPath4167"
       clipPathUnits="userSpaceOnUse"><path
         id="path4169"
         d="m 7.2,7.2 406.08,0 0,406.08 -406.08,0 0,-406.08 z" /></clipPath><clipPath
       id="clipPath4177"
       clipPathUnits="userSpaceOnUse"><path
         id="path4179"
         d="m 7.2,7.2 406.08,0 0,406.08 -406.08,0 0,-406.08 z" /></clipPath><clipPath
       id="clipPath4187"
       clipPathUnits="userSpaceOnUse"><path
         id="path4189"
         d="m 7.2,7.2 406.08,0 0,406.08 -406.08,0 0,-406.08 z" /></clipPath><clipPath
       id="clipPath4197"
       clipPathUnits="userSpaceOnUse"><path
         id="path4199"
         d="m 7.2,7.2 406.08,0 0,406.08 -406.08,0 0,-406.08 z" /></clipPath><clipPath
       id="clipPath4207"
       clipPathUnits="userSpaceOnUse"><path
         id="path4209"
         d="m 7.2,7.2 406.08,0 0,406.08 -406.08,0 0,-406.08 z" /></clipPath><clipPath
       id="clipPath4217"
       clipPathUnits="userSpaceOnUse"><path
         id="path4219"
         d="m 7.2,7.2 406.08,0 0,406.08 -406.08,0 0,-406.08 z" /></clipPath><clipPath
       id="clipPath4227"
       clipPathUnits="userSpaceOnUse"><path
         id="path4229"
         d="m 7.2,7.2 406.08,0 0,406.08 -406.08,0 0,-406.08 z" /></clipPath><clipPath
       id="clipPath4237"
       clipPathUnits="userSpaceOnUse"><path
         id="path4239"
         d="m 7.2,7.2 406.08,0 0,406.08 -406.08,0 0,-406.08 z" /></clipPath><clipPath
       id="clipPath4247"
       clipPathUnits="userSpaceOnUse"><path
         id="path4249"
         d="m 7.2,7.2 406.08,0 0,406.08 -406.08,0 0,-406.08 z" /></clipPath><clipPath
       id="clipPath4257"
       clipPathUnits="userSpaceOnUse"><path
         id="path4259"
         d="m 7.2,7.2 406.08,0 0,406.08 -406.08,0 0,-406.08 z" /></clipPath><clipPath
       id="clipPath4267"
       clipPathUnits="userSpaceOnUse"><path
         id="path4269"
         d="m 7.2,7.2 406.08,0 0,406.08 -406.08,0 0,-406.08 z" /></clipPath><clipPath
       id="clipPath4277"
       clipPathUnits="userSpaceOnUse"><path
         id="path4279"
         d="m 7.2,7.2 406.08,0 0,406.08 -406.08,0 0,-406.08 z" /></clipPath><clipPath
       id="clipPath4287"
       clipPathUnits="userSpaceOnUse"><path
         id="path4289"
         d="m 7.2,7.2 406.08,0 0,406.08 -406.08,0 0,-406.08 z" /></clipPath><clipPath
       id="clipPath4297"
       clipPathUnits="userSpaceOnUse"><path
         id="path4299"
         d="m 7.2,7.2 406.08,0 0,406.08 -406.08,0 0,-406.08 z" /></clipPath><clipPath
       id="clipPath4307"
       clipPathUnits="userSpaceOnUse"><path
         id="path4309"
         d="m 7.2,7.2 406.08,0 0,406.08 -406.08,0 0,-406.08 z" /></clipPath></defs><g
     transform="matrix(1.25,0,0,-1.25,-235.3,290.3)"
     id="g4003"><path
       id="path4005"
       style="fill:#ffffff;fill-opacity:1;fill-rule:nonzero;stroke:none"
       d="m 188.24,188.24 44,0 0,44 -44,0 0,-44 z" /><path
       id="path4007"
       style="fill:#ffffff;fill-opacity:1;fill-rule:nonzero;stroke:none"
       d="m 188.99342,188.99342 42.49316,0 0,42.49316 -42.49316,0 0,-42.49316 z" /><g
       transform="matrix(0.10464231,0,0,0.10464231,188.24,188.24)"
       id="g4009"><g
         clip-path="url(#clipPath4013)"
         id="g4011"><path
           id="path4017"
           style="fill:none;stroke:#cccccc;stroke-width:3;stroke-linecap:round;stroke-linejoin:round;stroke-miterlimit:10;stroke-dasharray:none;stroke-opacity:1"
           d="m 133.05574,42.250733 c 0,36.322004 0,71.525977 0,105.611907" /><path
           id="path4019"
           style="fill:#cccccc;fill-opacity:1;fill-rule:nonzero;stroke:#cccccc;stroke-width:3;stroke-linecap:round;stroke-linejoin:round;stroke-miterlimit:10;stroke-dasharray:none;stroke-opacity:1"
           d="m 128.05574,137.86264 5,10 5,-10 -10,0 z" /></g></g><g
       transform="matrix(0.10464231,0,0,0.10464231,188.24,188.24)"
       id="g4021"><g
         clip-path="url(#clipPath4025)"
         id="g4023"><path
           id="path4029"
           style="fill:none;stroke:#cccccc;stroke-width:3;stroke-linecap:round;stroke-linejoin:round;stroke-miterlimit:10;stroke-dasharray:none;stroke-opacity:1"
           d="m 78.572737,205.69975 c 36.322003,0 71.525973,0 105.611913,0" /><path
           id="path4031"
           style="fill:#cccccc;fill-opacity:1;fill-rule:nonzero;stroke:#cccccc;stroke-width:3;stroke-linecap:round;stroke-linejoin:round;stroke-miterlimit:10;stroke-dasharray:none;stroke-opacity:1"
           d="m 174.18465,210.69975 10,-5 -10,-5 0,10 z" /></g></g><g
       transform="matrix(0.10464231,0,0,0.10464231,188.24,188.24)"
       id="g4033"><g
         clip-path="url(#clipPath4037)"
         id="g4035"><path
           id="path4041"
           style="fill:none;stroke:#000000;stroke-width:1;stroke-linecap:square;stroke-linejoin:round;stroke-miterlimit:10;stroke-dasharray:none;stroke-opacity:1"
           d="m 24.089732,405.47077 0,-381.381038 381.381038,0" /></g></g><g
       transform="matrix(0.10464231,0,0,0.10464231,188.24,188.24)"
       id="g4043"><g
         clip-path="url(#clipPath4047)"
         id="g4045"><path
           id="path4051"
           style="fill:none;stroke:#000000;stroke-width:1;stroke-linecap:square;stroke-linejoin:round;stroke-miterlimit:10;stroke-dasharray:none;stroke-opacity:1"
           d="m 24.089732,24.089732 0,381.381038" /></g></g><g
       transform="matrix(0.10464231,0,0,0.10464231,188.24,188.24)"
       id="g4053"><g
         clip-path="url(#clipPath4057)"
         id="g4055"><path
           id="path4061"
           style="fill:none;stroke:#000000;stroke-width:1;stroke-linecap:square;stroke-linejoin:round;stroke-miterlimit:10;stroke-dasharray:none;stroke-opacity:1"
           d="m 24.089732,24.089732 381.381038,0" /></g></g><g
       transform="matrix(0.10464231,0,0,0.10464231,188.24,188.24)"
       id="g4063"><g
         clip-path="url(#clipPath4067)"
         id="g4065"><path
           id="path4071"
           style="fill:none;stroke:#000000;stroke-width:1;stroke-linecap:square;stroke-linejoin:round;stroke-miterlimit:10;stroke-dasharray:none;stroke-opacity:1"
           d="m 96.733739,24.089732 0,381.381038" /></g></g><g
       transform="matrix(0.10464231,0,0,0.10464231,188.24,188.24)"
       id="g4073"><g
         clip-path="url(#clipPath4077)"
         id="g4075"><path
           id="path4081"
           style="fill:none;stroke:#000000;stroke-width:1;stroke-linecap:square;stroke-linejoin:round;stroke-miterlimit:10;stroke-dasharray:none;stroke-opacity:1"
           d="m 24.089732,96.733739 381.381038,0" /></g></g><g
       transform="matrix(0.10464231,0,0,0.10464231,188.24,188.24)"
       id="g4083"><g
         clip-path="url(#clipPath4087)"
         id="g4085"><path
           id="path4091"
           style="fill:none;stroke:#000000;stroke-width:1;stroke-linecap:square;stroke-linejoin:round;stroke-miterlimit:10;stroke-dasharray:none;stroke-opacity:1"
           d="m 169.37775,24.089732 0,381.381038" /></g></g><g
       transform="matrix(0.10464231,0,0,0.10464231,188.24,188.24)"
       id="g4093"><g
         clip-path="url(#clipPath4097)"
         id="g4095"><path
           id="path4101"
           style="fill:none;stroke:#000000;stroke-width:1;stroke-linecap:square;stroke-linejoin:round;stroke-miterlimit:10;stroke-dasharray:none;stroke-opacity:1"
           d="m 24.089732,169.37775 381.381038,0" /></g></g><g
       transform="matrix(0.10464231,0,0,0.10464231,188.24,188.24)"
       id="g4103"><g
         clip-path="url(#clipPath4107)"
         id="g4105"><path
           id="path4111"
           style="fill:none;stroke:#000000;stroke-width:1;stroke-linecap:square;stroke-linejoin:round;stroke-miterlimit:10;stroke-dasharray:none;stroke-opacity:1"
           d="m 242.02175,24.089732 0,381.381038" /></g></g><g
       transform="matrix(0.10464231,0,0,0.10464231,188.24,188.24)"
       id="g4113"><g
         clip-path="url(#clipPath4117)"
         id="g4115"><path
           id="path4121"
           style="fill:none;stroke:#000000;stroke-width:1;stroke-linecap:square;stroke-linejoin:round;stroke-miterlimit:10;stroke-dasharray:none;stroke-opacity:1"
           d="m 24.089732,242.02175 381.381038,0" /></g></g><g
       transform="matrix(0.10464231,0,0,0.10464231,188.24,188.24)"
       id="g4123"><g
         clip-path="url(#clipPath4127)"
         id="g4125"><path
           id="path4131"
           style="fill:none;stroke:#000000;stroke-width:1;stroke-linecap:square;stroke-linejoin:round;stroke-miterlimit:10;stroke-dasharray:none;stroke-opacity:1"
           d="m 314.66576,24.089732 0,381.381038" /></g></g><g
       transform="matrix(0.10464231,0,0,0.10464231,188.24,188.24)"
       id="g4133"><g
         clip-path="url(#clipPath4137)"
         id="g4135"><path
           id="path4141"
           style="fill:none;stroke:#000000;stroke-width:1;stroke-linecap:square;stroke-linejoin:round;stroke-miterlimit:10;stroke-dasharray:none;stroke-opacity:1"
           d="m 24.089732,314.66576 381.381038,0" /></g></g><g
       transform="matrix(0.10464231,0,0,0.10464231,188.24,188.24)"
       id="g4143"><g
         clip-path="url(#clipPath4147)"
         id="g4145"><path
           id="path4151"
           style="fill:none;stroke:#000000;stroke-width:1;stroke-linecap:square;stroke-linejoin:round;stroke-miterlimit:10;stroke-dasharray:none;stroke-opacity:1"
           d="m 387.30977,24.089732 0,381.381038" /></g></g><g
       transform="matrix(0.10464231,0,0,0.10464231,188.24,188.24)"
       id="g4153"><g
         clip-path="url(#clipPath4157)"
         id="g4155"><path
           id="path4161"
           style="fill:none;stroke:#000000;stroke-width:1;stroke-linecap:square;stroke-linejoin:round;stroke-miterlimit:10;stroke-dasharray:none;stroke-opacity:1"
           d="m 24.089732,387.30977 381.381038,0" /></g></g><g
       transform="matrix(0.10464231,0,0,0.10464231,188.24,188.24)"
       id="g4163"><g
         clip-path="url(#clipPath4167)"
         id="g4165"><path
           id="path4171"
           style="fill:none;stroke:#cccccc;stroke-width:3;stroke-linecap:square;stroke-linejoin:round;stroke-miterlimit:10;stroke-dasharray:none;stroke-opacity:1"
           d="m 24.089732,242.02175 72.644007,-72.644" /></g></g><g
       transform="matrix(0.10464231,0,0,0.10464231,188.24,188.24)"
       id="g4173"><g
         clip-path="url(#clipPath4177)"
         id="g4175"><path
           id="path4181"
           style="fill:none;stroke:#cccccc;stroke-width:3;stroke-linecap:square;stroke-linejoin:round;stroke-miterlimit:10;stroke-dasharray:none;stroke-opacity:1"
           d="m 24.089732,24.089732 217.932018,0" /></g></g><g
       transform="matrix(0.10464231,0,0,0.10464231,188.24,188.24)"
       id="g4183"><g
         clip-path="url(#clipPath4187)"
         id="g4185"><path
           id="path4191"
           style="fill:none;stroke:#000000;stroke-width:3;stroke-linecap:square;stroke-linejoin:round;stroke-miterlimit:10;stroke-dasharray:none;stroke-opacity:1"
           d="m 24.089732,169.37775 217.932018,0" /></g></g><g
       transform="matrix(0.10464231,0,0,0.10464231,188.24,188.24)"
       id="g4193"><g
         clip-path="url(#clipPath4197)"
         id="g4195"><path
           id="path4201"
           style="fill:none;stroke:#000000;stroke-width:3;stroke-linecap:square;stroke-linejoin:round;stroke-miterlimit:10;stroke-dasharray:none;stroke-opacity:1"
           d="m 169.37775,242.02175 72.644,-72.644" /></g></g><g
       transform="matrix(0.10464231,0,0,0.10464231,188.24,188.24)"
       id="g4203"><g
         clip-path="url(#clipPath4207)"
         id="g4205"><path
           id="path4211"
           style="fill:#ffffff;fill-opacity:1;fill-rule:nonzero;stroke:#ffffff;stroke-width:1;stroke-linecap:square;stroke-linejoin:round;stroke-miterlimit:10;stroke-dasharray:none;stroke-opacity:1"
           d="m 24.089732,15.009231 c 2.408177,0 4.718045,0.956779 6.420883,2.659617 1.702839,1.702838 2.659618,4.012707 2.659618,6.420884 0,2.408177 -0.956779,4.718045 -2.659618,6.420883 -1.702838,1.702839 -4.012706,2.659618 -6.420883,2.659618 -2.408177,0 -4.718046,-0.956779 -6.420884,-2.659618 -1.702838,-1.702838 -2.659617,-4.012706 -2.659617,-6.420883 0,-2.408177 0.956779,-4.718046 2.659617,-6.420884 1.702838,-1.702838 4.012707,-2.659617 6.420884,-2.659617 z" /></g></g><g
       transform="matrix(0.10464231,0,0,0.10464231,188.24,188.24)"
       id="g4213"><g
         clip-path="url(#clipPath4217)"
         id="g4215"><path
           id="path4221"
           style="fill:#ffffff;fill-opacity:1;fill-rule:nonzero;stroke:#ffffff;stroke-width:1;stroke-linecap:square;stroke-linejoin:round;stroke-miterlimit:10;stroke-dasharray:none;stroke-opacity:1"
           d="m 24.089732,232.94125 c 2.408177,0 4.718045,0.95678 6.420883,2.65962 1.702839,1.70284 2.659618,4.01271 2.659618,6.42088 0,2.40818 -0.956779,4.71805 -2.659618,6.42089 -1.702838,1.70284 -4.012706,2.65961 -6.420883,2.65961 -2.408177,0 -4.718046,-0.95677 -6.420884,-2.65961 -1.702838,-1.70284 -2.659617,-4.01271 -2.659617,-6.42089 0,-2.40817 0.956779,-4.71804 2.659617,-6.42088 1.702838,-1.70284 4.012707,-2.65962 6.420884,-2.65962 z" /></g></g><g
       transform="matrix(0.10464231,0,0,0.10464231,188.24,188.24)"
       id="g4223"><g
         clip-path="url(#clipPath4227)"
         id="g4225"><path
           id="path4231"
           style="fill:#ffffff;fill-opacity:1;fill-rule:nonzero;stroke:#ffffff;stroke-width:1;stroke-linecap:square;stroke-linejoin:round;stroke-miterlimit:10;stroke-dasharray:none;stroke-opacity:1"
           d="m 24.089732,160.29725 c 2.408177,0 4.718045,0.95677 6.420883,2.65961 1.702839,1.70284 2.659618,4.01271 2.659618,6.42089 0,2.40817 -0.956779,4.71804 -2.659618,6.42088 -1.702838,1.70284 -4.012706,2.65962 -6.420883,2.65962 -2.408177,0 -4.718046,-0.95678 -6.420884,-2.65962 -1.702838,-1.70284 -2.659617,-4.01271 -2.659617,-6.42088 0,-2.40818 0.956779,-4.71805 2.659617,-6.42089 1.702838,-1.70284 4.012707,-2.65961 6.420884,-2.65961 z" /></g></g><g
       transform="matrix(0.10464231,0,0,0.10464231,188.24,188.24)"
       id="g4233"><g
         clip-path="url(#clipPath4237)"
         id="g4235"><path
           id="path4241"
           style="fill:#ffffff;fill-opacity:1;fill-rule:nonzero;stroke:#ffffff;stroke-width:1;stroke-linecap:square;stroke-linejoin:round;stroke-miterlimit:10;stroke-dasharray:none;stroke-opacity:1"
           d="m 169.37775,232.94125 c 2.40817,0 4.71804,0.95678 6.42088,2.65962 1.70284,1.70284 2.65962,4.01271 2.65962,6.42088 0,2.40818 -0.95678,4.71805 -2.65962,6.42089 -1.70284,1.70284 -4.01271,2.65961 -6.42088,2.65961 -2.40818,0 -4.71805,-0.95677 -6.42089,-2.65961 -1.70284,-1.70284 -2.65961,-4.01271 -2.65961,-6.42089 0,-2.40817 0.95677,-4.71804 2.65961,-6.42088 1.70284,-1.70284 4.01271,-2.65962 6.42089,-2.65962 z" /></g></g><g
       transform="matrix(0.10464231,0,0,0.10464231,188.24,188.24)"
       id="g4243"><g
         clip-path="url(#clipPath4247)"
         id="g4245"><path
           id="path4251"
           style="fill:none;stroke:#cccccc;stroke-width:3;stroke-linecap:square;stroke-linejoin:round;stroke-miterlimit:10;stroke-dasharray:none;stroke-opacity:1"
           d="m 24.089732,15.009231 c 2.408177,0 4.718045,0.956779 6.420883,2.659617 1.702839,1.702838 2.659618,4.012707 2.659618,6.420884 0,2.408177 -0.956779,4.718045 -2.659618,6.420883 -1.702838,1.702839 -4.012706,2.659618 -6.420883,2.659618 -2.408177,0 -4.718046,-0.956779 -6.420884,-2.659618 -1.702838,-1.702838 -2.659617,-4.012706 -2.659617,-6.420883 0,-2.408177 0.956779,-4.718046 2.659617,-6.420884 1.702838,-1.702838 4.012707,-2.659617 6.420884,-2.659617 z" /></g></g><g
       transform="matrix(0.10464231,0,0,0.10464231,188.24,188.24)"
       id="g4253"><g
         clip-path="url(#clipPath4257)"
         id="g4255"><path
           id="path4261"
           style="fill:#cccccc;fill-opacity:1;fill-rule:nonzero;stroke:#cccccc;stroke-width:1;stroke-linecap:square;stroke-linejoin:round;stroke-miterlimit:10;stroke-dasharray:none;stroke-opacity:1"
           d="m 242.02175,15.009231 c 2.40818,0 4.71805,0.956779 6.42089,2.659617 1.70284,1.702838 2.65961,4.012707 2.65961,6.420884 0,2.408177 -0.95677,4.718045 -2.65961,6.420883 -1.70284,1.702839 -4.01271,2.659618 -6.42089,2.659618 -2.40817,0 -4.71804,-0.956779 -6.42088,-2.659618 -1.70284,-1.702838 -2.65962,-4.012706 -2.65962,-6.420883 0,-2.408177 0.95678,-4.718046 2.65962,-6.420884 1.70284,-1.702838 4.01271,-2.659617 6.42088,-2.659617 z" /></g></g><g
       transform="matrix(0.10464231,0,0,0.10464231,188.24,188.24)"
       id="g4263"><g
         clip-path="url(#clipPath4267)"
         id="g4265"><path
           id="path4271"
           style="fill:none;stroke:#cccccc;stroke-width:3;stroke-linecap:square;stroke-linejoin:round;stroke-miterlimit:10;stroke-dasharray:none;stroke-opacity:1"
           d="m 24.089732,232.94125 c 2.408177,0 4.718045,0.95678 6.420883,2.65962 1.702839,1.70284 2.659618,4.01271 2.659618,6.42088 0,2.40818 -0.956779,4.71805 -2.659618,6.42089 -1.702838,1.70284 -4.012706,2.65961 -6.420883,2.65961 -2.408177,0 -4.718046,-0.95677 -6.420884,-2.65961 -1.702838,-1.70284 -2.659617,-4.01271 -2.659617,-6.42089 0,-2.40817 0.956779,-4.71804 2.659617,-6.42088 1.702838,-1.70284 4.012707,-2.65962 6.420884,-2.65962 z" /></g></g><g
       transform="matrix(0.10464231,0,0,0.10464231,188.24,188.24)"
       id="g4273"><g
         clip-path="url(#clipPath4277)"
         id="g4275"><path
           id="path4281"
           style="fill:#cccccc;fill-opacity:1;fill-rule:nonzero;stroke:#cccccc;stroke-width:1;stroke-linecap:square;stroke-linejoin:round;stroke-miterlimit:10;stroke-dasharray:none;stroke-opacity:1"
           d="m 96.733739,160.29725 c 2.408177,0 4.718041,0.95677 6.420881,2.65961 1.70284,1.70284 2.65962,4.01271 2.65962,6.42089 0,2.40817 -0.95678,4.71804 -2.65962,6.42088 -1.70284,1.70284 -4.012704,2.65962 -6.420881,2.65962 -2.408177,0 -4.718046,-0.95678 -6.420884,-2.65962 -1.702838,-1.70284 -2.659617,-4.01271 -2.659617,-6.42088 0,-2.40818 0.956779,-4.71805 2.659617,-6.42089 1.702838,-1.70284 4.012707,-2.65961 6.420884,-2.65961 z" /></g></g><g
       transform="matrix(0.10464231,0,0,0.10464231,188.24,188.24)"
       id="g4283"><g
         clip-path="url(#clipPath4287)"
         id="g4285"><path
           id="path4291"
           style="fill:#000000;fill-opacity:1;fill-rule:nonzero;stroke:#000000;stroke-width:1;stroke-linecap:square;stroke-linejoin:round;stroke-miterlimit:10;stroke-dasharray:none;stroke-opacity:1"
           d="m 242.02175,160.29725 c 2.40818,0 4.71805,0.95677 6.42089,2.65961 1.70284,1.70284 2.65961,4.01271 2.65961,6.42089 0,2.40817 -0.95677,4.71804 -2.65961,6.42088 -1.70284,1.70284 -4.01271,2.65962 -6.42089,2.65962 -2.40817,0 -4.71804,-0.95678 -6.42088,-2.65962 -1.70284,-1.70284 -2.65962,-4.01271 -2.65962,-6.42088 0,-2.40818 0.95678,-4.71805 2.65962,-6.42089 1.70284,-1.70284 4.01271,-2.65961 6.42088,-2.65961 z" /></g></g><g
       transform="matrix(0.10464231,0,0,0.10464231,188.24,188.24)"
       id="g4293"><g
         clip-path="url(#clipPath4297)"
         id="g4295"><path
           id="path4301"
           style="fill:none;stroke:#000000;stroke-width:3;stroke-linecap:square;stroke-linejoin:round;stroke-miterlimit:10;stroke-dasharray:none;stroke-opacity:1"
           d="m 24.089732,160.29725 c 2.408177,0 4.718045,0.95677 6.420883,2.65961 1.702839,1.70284 2.659618,4.01271 2.659618,6.42089 0,2.40817 -0.956779,4.71804 -2.659618,6.42088 -1.702838,1.70284 -4.012706,2.65962 -6.420883,2.65962 -2.408177,0 -4.718046,-0.95678 -6.420884,-2.65962 -1.702838,-1.70284 -2.659617,-4.01271 -2.659617,-6.42088 0,-2.40818 0.956779,-4.71805 2.659617,-6.42089 1.702838,-1.70284 4.012707,-2.65961 6.420884,-2.65961 z" /></g></g><g
       transform="matrix(0.10464231,0,0,0.10464231,188.24,188.24)"
       id="g4303"><g
         clip-path="url(#clipPath4307)"
         id="g4305"><path
           id="path4311"
           style="fill:none;stroke:#000000;stroke-width:3;stroke-linecap:square;stroke-linejoin:round;stroke-miterlimit:10;stroke-dasharray:none;stroke-opacity:1"
           d="m 169.37775,232.94125 c 2.40817,0 4.71804,0.95678 6.42088,2.65962 1.70284,1.70284 2.65962,4.01271 2.65962,6.42088 0,2.40818 -0.95678,4.71805 -2.65962,6.42089 -1.70284,1.70284 -4.01271,2.65961 -6.42088,2.65961 -2.40818,0 -4.71805,-0.95677 -6.42089,-2.65961 -1.70284,-1.70284 -2.65961,-4.01271 -2.65961,-6.42089 0,-2.40817 0.95677,-4.71804 2.65961,-6.42088 1.70284,-1.70284 4.01271,-2.65962 6.42089,-2.65962 z" /></g></g></g></svg>